# xmcd
#
# Track frame offsets:
#      180
#      17983
#      32481
#      49001
#      62834
#      79731
#      97913
#      111841
#      127552
#      142658
#      159138
#      174723
#
# Disc length: 2493 seconds
#
# Revision: 0
# Processed by: cddbd v1.5.1PL0 Copyright (c) Steve Scherf et al.
# Submitted via: SoundClick v1.0
#
DISCID=8609bb0c
DTITLE=Eric Waterman - Memories
DYEAR=1900
DGENRE=
TTITLE0=Searching For A Dream
TTITLE1=Sweet Mary
TTITLE2=Home By The Sea
TTITLE3=Living The Old Days With The New
TTITLE4=Special Awards
TTITLE5=Mona Jean
TTITLE6=Losing You
TTITLE7=Remembrance Day
TTITLE8=Labrador
TTITLE9=Accordion Man
TTITLE10=Sweet Memories
TTITLE11=Stay Awhile
EXTD=
EXTT0=
EXTT1=
EXTT2=
EXTT3=
EXTT4=
EXTT5=
EXTT6=
EXTT7=
EXTT8=
EXTT9=
EXTT10=
EXTT11=
PLAYORDER=
